# xmcd
#
# Track frame offsets: 
#        150
#        27039
#        49908
#        69260
#        84528
#        102747
#        124369
#        143886
#        167526
#        192173
#
# Disc length: 2849 seconds
#
# Revision: 1
# Processed by: cddbd v1.5.2PL0 Copyright (c) Steve Scherf et al.
# Submitted via: ExactAudioCopy v0.95a5
#
DISCID=880b1f0a
DTITLE=Various Artist - Smooth Jazz Party Grooves
DYEAR=2002
DGENRE=Jazz
TTITLE0=Nestor Torres - Cafe Cubano
TTITLE1=Tom Grant - Blue Voyage
TTITLE2=Curtis Salgado - Summertime Life
TTITLE3=Alfonzo Blackwell - Funky Shuffle
TTITLE4=Chieli Minucci - Hot 100
TTITLE5=Liquid Sole - This and That
TTITLE6=Walter Beasley - I Feel You
TTITLE7=Noel Pointer - Drive Time
TTITLE8=George Jinda - News and Views
TTITLE9=Fattburger - Show Me The Honey
EXTD=YEAR: 2002
EXTT0=
EXTT1=
EXTT2=
EXTT3=
EXTT4=
EXTT5=
EXTT6=
EXTT7=
EXTT8=
EXTT9=
PLAYORDER=
